
<global>
amp_veltrack=0
ampeg_release=0.45
</global>

<group>
group_label=PP
lpc_hicc1=42
lpc_locc1=0

<region>
hikey=a3
hivel=127
lokey=g#3
loop_end=276148
loop_mode=loop_continuous
loop_start=44450
loop_xfade=23488
lovel=0
lpc=JUmbQDXrKcG3/jVBva3fwNFSi0Cff4LACcKHQO5UScCanPQ/AM4svtfxqr7j5Z09WhHPPhv5+77At90/IO1AwP/MSEAl0w/Ausz+P6oM2r+S/Vo/u0YovpZMuD3hMgi+
lpc_rms=-33.54
pitch_keycenter=a3
sample=Soloviolin2_espressivo_PP_A3.opus
tune=+1
</region>

<region>
hikey=a4
hivel=127
lokey=g#4
loop_end=283604
loop_mode=loop_continuous
loop_start=45596
loop_xfade=24093
lovel=0
lpc=V3WMQJB0F8GEMSpB3PnzwHWcpECJjlTAh3gKQF9xkb/EaJo/Grewvy6iqT+nRTO/JHYFP5d99b6PP1A/75B9vwmnXD8fNb29hXncveS43z0jcgG+MUWXPLTBpT6Hyka+
lpc_rms=-38.09
pitch_keycenter=a4
sample=Soloviolin2_espressivo_PP_A4.opus
tune=-1
</region>

<region>
hikey=a5
hivel=127
lokey=g#5
loop_end=281318
loop_mode=loop_continuous
loop_start=44907
loop_xfade=23729
lovel=0
lpc=HuVvQE0Pj8D/Qp1AkQ81wBLVL0BG0aO/QyHzPwN8d79IuNs/K3oOv63Jlz+Ljo6+k9WFP+GFtzcBChk/GHMwP5vWPr4qoZE/TmqYvk2LoD+7qB6/NjzdP6IYkr83TvQ/
lpc_rms=-31.10
pitch_keycenter=a5
sample=Soloviolin2_espressivo_PP_A5.opus
</region>

<region>
hikey=a6
hivel=127
lokey=g#6
loop_end=271121
loop_mode=loop_continuous
loop_start=43829
loop_xfade=23160
lovel=0
lpc=S+cLQbrNnsAxSqBAO+eDv9l/TECOgIi9kaXjP8ZTgL/wkn0/vPxfP1/S2j+JOBi/FOJOQPXllMBTZxnAtbpbQDWIYcBim+k/DekkwJ98tD+/Kk2/nGH1Pz4lHb8Eg0u+
lpc_rms=-27.82
pitch_keycenter=a6
sample=Soloviolin2_espressivo_PP_A6.opus
tune=-1
</region>

<region>
hikey=b3
hivel=127
lokey=a#3
loop_end=268423
loop_mode=loop_continuous
loop_start=44651
loop_xfade=23594
lovel=0
lpc=68bJQKZAdMFUGo1B6KJFwXMa/EAfhePAjBHZQNoUkMAX+wZAWXYPvnWLGL+iICw/qiazvm+tmzwvn20/2pzcv50/IUA0viDA2owAQAiGpr9YMT0/7kvMvmX8Bz4NuLK9
lpc_rms=-36.49
pitch_keycenter=b3
sample=Soloviolin2_espressivo_PP_B3.opus
tune=+1
</region>

<region>
hikey=b4
hivel=127
lokey=a#4
loop_end=273700
loop_mode=loop_continuous
loop_start=50555
loop_xfade=26714
lovel=0
lpc=ro1+QLvS6cCZyuFAYR6WwJ3wUEASmuq/Bda7P5E71b+8oNw/iTqgv6TAyT8B1bi/kut7P3Lvj75wR0Q/wNJsv3ZPrj/9PCq/CyBUv1T48D9Qv6a/eX/aPeAL/T74hZK+
lpc_rms=-37.62
pitch_keycenter=b4
sample=Soloviolin2_espressivo_PP_B4.opus
tune=-2
</region>

<region>
hikey=b5
hivel=127
lokey=a#5
loop_end=298964
loop_mode=loop_continuous
loop_start=111310
loop_xfade=25287
lovel=0
lpc=84a6QBTS08BIU65ArPVmwC5hMUC1FBHAFV0ZQAFlzb+uTbg+sJxzP1nscb9jAZU+Es8nP5FGu76e2qK+XaWBPzgQEr6Qjoe/pFgHQJ5EEcCovhpAOfwhwMQOYkBa/4LA
lpc_rms=-32.39
offset=19551
pitch_keycenter=b5
sample=Soloviolin2_espressivo_PP_B5.opus
tune=+2
</region>

<region>
hikey=E7
hivel=127
lokey=a#6
loop_end=242388
loop_mode=loop_continuous
loop_start=44772
loop_xfade=23658
lovel=0
lpc=VusrQYbx28DrRcJA2MK9v2erQ0BeuLA/qghSQNcaxL87QhdA0OAXQC/pgT+1e2Y/kQsDwS8Zp0Am/U3ALKyhPyPK9r+fX5C+kIoUwNp5rD9/epq+Hn8fwFJ2FT8rVmC/
lpc_rms=-26.07
pitch_keycenter=B6
sample=Soloviolin2_espressivo_PP_B6.opus
tune=-13
</region>

<region>
hikey=c#4
hivel=127
lokey=c4
loop_end=264479
loop_mode=loop_continuous
loop_start=43426
loop_xfade=22946
lovel=0
lpc=CGgCQfYlk8HylppBviQ8wXmRwkCUksjAMOPNQOzpd8AvCJw/dbiOvqkxXb55kQc/VB7TvlbQsr8fTn9AMxKjwCJEqUCp0HHAEkA2QHKL1L+RbD0/+VWoviNs6T4QWGO+
lpc_rms=-33.01
pitch_keycenter=c#4
sample=Soloviolin2_espressivo_PP_C#4.opus
</region>

<region>
hikey=c#5
hivel=127
lokey=c5
loop_end=281170
loop_mode=loop_continuous
loop_start=45910
loop_xfade=24259
lovel=0
lpc=r2ikQG+9KMF/hSdBtbLhwPmLk0DMDxDA7Y+DPgtcO71qHno+/xQiv63Hbj/+AtK+Jsy7vh1r6j6OXtM+r/CSv7h1pj/zzAK/V8KKPgj/sbzQ0CS8u9esvTDhyD5OkGi9
lpc_rms=-32.65
pitch_keycenter=c#5
sample=Soloviolin2_espressivo_PP_C#5.opus
</region>

<region>
hikey=c#6
hivel=127
lokey=c6
loop_end=277713
loop_mode=loop_continuous
loop_start=45659
loop_xfade=24126
lovel=0
lpc=bZsjQTBtCsE3xORAW54rwAlnIEAkhYa/eZJKQLbV7b8oWCVAaZWGPVm4mz/uQja/yktQQLLsyr+hYr0/PDeDPx1ydz9amTq/4StRQOkhBcCYeoRAXwvjwIn9vz+UCQm9
lpc_rms=-26.88
pitch_keycenter=c#6
sample=Soloviolin2_espressivo_PP_C#6.opus
tune=+2
</region>

<region>
hikey=d#4
hivel=127
lokey=d4
loop_end=278500
loop_mode=loop_continuous
loop_start=45823
loop_xfade=24213
lovel=0
lpc=CXCtQJsRSsG8hmBB28UbwakVu0CUa2rA14odQOovAsBNKv0/81n+v92V0z+n14K/SDBdP7H9p79V+vg/czMnwPDZNUBvEtS/xdn6PmnKR75TYgI/GXaWvk9Fib0wRZQ+
lpc_rms=-37.52
pitch_keycenter=d#4
sample=Soloviolin2_espressivo_PP_D#4.opus
</region>

<region>
hikey=d#5
hivel=127
lokey=d5
loop_end=261809
loop_mode=loop_continuous
loop_start=54041
loop_xfade=28555
lovel=0
lpc=eLOTQCpVFsHb0B5BOmTcwLkunkBpwRvAZwuxPssjVb+Cl/c/wamPvzfQhj+3FM+/NjVfP/5Olz38AI0+ohfCvUKAFD1t2AK/RjYnP3S5Lz8KoIK/XiyGP9kLW784xBc/
lpc_rms=-32.90
pitch_keycenter=d#5
sample=Soloviolin2_espressivo_PP_D#5.opus
tune=-1
</region>

<region>
hikey=d#6
hivel=127
lokey=d6
loop_end=270236
loop_mode=loop_continuous
loop_start=44072
loop_xfade=23288
lovel=0
lpc=Kv0TQWul6cBEVedA8gmwvxJgUkBFBlC/3YgwQIT5C8CNoxdAiVH3vbwdfz857pS/YzJGQDoVvr/M7oI/apPMPtLtyz+BdOe/bBhMQK+wBMHA2YRAoANGwHwKgj63zQTA
lpc_rms=-29.46
pitch_keycenter=d#6
sample=Soloviolin2_espressivo_PP_D#6.opus
</region>

<region>
hikey=f4
hivel=127
lokey=e4
loop_end=283788
loop_mode=loop_continuous
loop_start=45840
loop_xfade=24222
lovel=0
lpc=5GW6QD8wWsGc7XBBd7cmwS+Y4kBWpKXAyWhdQEMYScB8rm9A5c4NwMlqHT+j/iO++7CDvbhhMD+Svgc+d0d4v+hgeD8ihyO/x94UP4LZGL8u+FQ/7AxNv6xknz5bPns9
lpc_rms=-34.73
offset=6459
pitch_keycenter=f4
sample=Soloviolin2_espressivo_PP_F4.opus
tune=+1
</region>

<region>
hikey=f5
hivel=127
lokey=e5
loop_end=293607
loop_mode=loop_continuous
loop_start=98644
loop_xfade=24891
lovel=0
lpc=mkmgQJflMMGTjVJBbNwiwYyR70C+wqHAUL1eQLJfQ8DyAnlAtXVkwHJjEEDnQhq/RUeqPvzmg7+ffAJAD9IIwLv1I0DQLV/AISeIQBjNV8Dhr/E/9K14v2awaz+n1wq/
lpc_rms=-30.53
pitch_keycenter=f5
sample=Soloviolin2_espressivo_PP_F5.opus
</region>

<region>
hikey=f6
hivel=127
lokey=e6
loop_end=283871
loop_mode=loop_continuous
loop_start=45843
loop_xfade=24224
lovel=0
lpc=IegVQXiX48DM9uZAZZk5wIVqR0CzHMs/u+Z9P3aZqb8HbglA/2NPvytxLT8pIzI+4taaP1YBob/AfgxAxr2Ov4eB2D9dmgLBRJKSQCMficBbOd4/Ujrgv7TEBsB/zm0+
lpc_rms=-30.13
pitch_keycenter=f6
sample=Soloviolin2_espressivo_PP_F6.opus
tune=+2
</region>

<region>
hivel=127
key=g3
loop_end=287060
loop_mode=loop_continuous
loop_start=47320
loop_xfade=25004
lovel=0
lpc=wHDLQAV9asF+M4JBkggbwatqa0CWOAXAbi5FQFCBMsAvodY/EMwAv0upkbyHdG8/vq6iv5VWPT9yBJA/3igJwPmoCEDjckW/Ir2yPo0DHL+rCBo/wIL4vcnUsLx6QFy+
lpc_rms=-34.49
sample=Soloviolin2_espressivo_PP_G3.opus
</region>

<region>
hikey=g4
hivel=127
lokey=f#4
loop_end=281248
loop_mode=loop_continuous
loop_start=46710
loop_xfade=24682
lovel=0
lpc=z3O4QCCzQcG7OVlBlcoUwWnvwUCRNT3AJGe5PzX8FL9Fa44/jLmpvvG9LT54PUY93u/kPV/dgT6o0tM8XOOIv2M53T9Sf3C/j/y2PaHylT4NosY+HunGvzw1yz9hTja/
lpc_rms=-36.84
pitch_keycenter=g4
sample=Soloviolin2_espressivo_PP_G4.opus
tune=+1
</region>

<region>
hikey=g5
hivel=127
lokey=f#5
loop_end=278089
loop_mode=loop_continuous
loop_start=51661
loop_xfade=27298
lovel=0
lpc=3iRrQNM0xMBlhM1AQsGmwOKknkCF+GPAgZIVQHe//b+HjgNAqsN9vyIOgD+MTs2+818PPsMM/T3wPSE+OJMvP+UWLL+PpnE+nba2vRaYjz+B4A+/VuRHP865cb9/yV0/
lpc_rms=-33.80
pitch_keycenter=g5
sample=Soloviolin2_espressivo_PP_G5.opus
tune=-1
</region>

<region>
hikey=g6
hivel=127
lokey=f#6
loop_end=290302
loop_mode=loop_continuous
loop_start=68449
loop_xfade=25288
lovel=0
lpc=j2LCQHAGjcD14oVAM1rqv33sDEC6pDU+4Wm4P0dsiL+vyWY/XU+oPlMZTD4FOdG+9ofUPxOasb+kl/A/LLirwN6eEUAzNuG/0ewKP05wBb+CUJC/AL+CvhUAED+1FrG+
lpc_rms=-33.46
pitch_keycenter=g6
sample=Soloviolin2_espressivo_PP_G6.opus
tune=+7
</region>
</group>

<group>
group_label=MF
lpc_hicc1=84
lpc_locc1=43

<region>
hikey=a3
hivel=127
lokey=g#3
loop_end=281159
loop_mode=loop_continuous
loop_start=45196
loop_xfade=23882
lovel=0
lpc=oWu9QI6dbcGECJ1BlKmFwV4aMEGhr6/AYvEzQCNCRsC6X45ACgB1wO4BC0DIRtq+0Q84v9vYmj+5a1C+hTxWv7WkuD+rhLC/oAyHPxcdLz2hKuG/3QQ7QLnlHsDDWlg/
lpc_rms=-21.19
pan=30.00
pitch_keycenter=a3
sample=Soloviolin2_espressivo_MF_A3.opus
tune=+1
volume=-9.00
</region>

<region>
hikey=a4
hivel=127
lokey=g#4
loop_end=260328
loop_mode=loop_continuous
loop_start=41984
loop_xfade=22185
lovel=0
lpc=MP7ZQAZbbsHlm4hBxtU3wWaeBkFmcPnAooSsQJGhHMDaWPY/yEjev9w5m7/VhUZAbuUQwLkQPj9FC6i9YNstv+BQJEBNiRXA7Rm5P2Y2Yb8tCOo/9UwXwKcW8D8hq2S/
lpc_rms=-19.79
pan=30.00
pitch_keycenter=a4
sample=Soloviolin2_espressivo_MF_A4.opus
volume=-9.00
</region>

<region>
hikey=a5
hivel=127
lokey=g#5
loop_end=273355
loop_mode=loop_continuous
loop_start=44365
loop_xfade=23443
lovel=0
lpc=ImOIQJojecD+YnhASzbsvxqmKUCy3JS+eu5+P9+pCL8MmtE/qxkvP3MF0L2ZrTg/s51PP9HzlT2DAaA/DysbP0oZ6DxLEBQ/QnqaPz0CHD9hWm6+xdGFPw+fgr4GzPU/
lpc_rms=-17.55
pan=30.00
pitch_keycenter=a5
sample=Soloviolin2_espressivo_MF_A5.opus
volume=-9.00
</region>

<region>
hikey=a6
hivel=127
lokey=g#6
loop_end=270270
loop_mode=loop_continuous
loop_start=43509
loop_xfade=22990
lovel=0
lpc=OhYAQWLzdb9CWpJAZZM+P1tKGkAY61JA2ueuPzihl7484iFAcPK1P/Lv2T/M4os/4CZMQCmuQsAE9i7AYAG8P6VOPcBFItw/1YgdwOzNEb8+HqM/XCs0P/Lufb9UWw0/
lpc_rms=-19.51
pan=30.00
pitch_keycenter=a6
sample=Soloviolin2_espressivo_MF_A6.opus
volume=-9.00
</region>

<region>
hikey=b3
hivel=127
lokey=a#3
loop_end=280147
loop_mode=loop_continuous
loop_start=45450
loop_xfade=24016
lovel=0
lpc=jHChQAMjQsF6AnVB5c9CwS4/5kD1u3HAEcBVQIaPgsCxiYVACAkTwChAFD9yzk4/3Vagv4wXpz9q7tO+PDPNvkAzfD/1y2y/Zk1lP4vcVL/EEto+vGNtPymap7/TmCg/
lpc_rms=-22.53
pan=30.00
pitch_keycenter=b3
sample=Soloviolin2_espressivo_MF_B3.opus
tune=+2
volume=-9.00
</region>

<region>
hikey=b4
hivel=127
lokey=a#4
loop_end=281331
loop_mode=loop_continuous
loop_start=45071
loop_xfade=23816
lovel=0
lpc=UOyHQBicB8E2ExNBRGjbwDtntUDHAo7A10I+QBK4KcDIqXJAc3hcwJazAkC4wjW/GSjePLeNgz8tFki/O3qUvmt3sD/DzYy/jQ0gP2yQvD4MGni/qyUbP/gGdT7xHAa/
lpc_rms=-21.48
pan=30.00
pitch_keycenter=b4
sample=Soloviolin2_espressivo_MF_B4.opus
tune=+1
volume=-9.00
</region>

<region>
hikey=b5
hivel=127
lokey=a#5
loop_end=282390
loop_mode=loop_continuous
loop_start=45739
loop_xfade=24169
lovel=0
lpc=/9OkQAi8T78N/Y1A99kjP0yeU0DgDoY/GzNZQJSSMj/uB11AEuCAPzO1U0DMV2I/lsh3QM9vKD9PVk5AtySSP7xmTEAAr4Y/TDFJQGGXnz8c3UZAQpygPzwxUEBZYXw/
lpc_rms=-19.74
pan=30.00
pitch_keycenter=b5
sample=Soloviolin2_espressivo_MF_B5.opus
tune=+2
volume=-9.00
</region>

<region>
hikey=E7
hivel=127
lokey=a#6
loop_end=280890
loop_mode=loop_continuous
loop_start=45296
loop_xfade=23935
lovel=0
lpc=GN0UQUzDnb+d4H9AN1IlPwEcfEA6jg9AKPFUQOu4tj/iDUtAy2jLPxCMJ0DMRk9AozYJwZV6yz5VmC3AjPISvxe5RMA1DQHAI3QvwOR6pb8TlBrAhHq4v/6HDMARLw7A
lpc_rms=-19.85
pan=30.00
pitch_keycenter=B6
sample=Soloviolin2_espressivo_MF_B6.opus
volume=-9.00
</region>

<region>
hikey=c#4
hivel=127
lokey=c4
loop_end=277191
loop_mode=loop_continuous
loop_start=44423
loop_xfade=23473
lovel=0
lpc=hpKyQM58X8FKWZFBrCt+wdXtNEHlIvzAIPrKQM6iysBMw7RAsGhrwPhQ8j/ER7O+xpVCv3PEdj+C1QC/ZdWQP2pf77+61CZAXkgnwABQ3T9FUsO/ZLsbQEfmJcC7s40/
lpc_rms=-23.19
pan=30.00
pitch_keycenter=c#4
sample=Soloviolin2_espressivo_MF_C#4.opus
tune=-1
volume=-9.00
</region>

<region>
hikey=c#5
hivel=127
lokey=c5
loop_end=280638
loop_mode=loop_continuous
loop_start=45227
loop_xfade=23898
lovel=0
lpc=lG6FQLy/E8Gb9SlBZNT9wFxXnkC0kz3AUonKP95LWb8jZYM/AYKWvyHlAT8bNw4/scS9vpulwL6kusA/WqYLwAueBEB5T6u/Y2VDPzmVfr7lwpm9VKL+PBnEST7N3KK9
lpc_rms=-20.66
pan=30.00
pitch_keycenter=c#5
sample=Soloviolin2_espressivo_MF_C#5.opus
volume=-9.00
</region>

<region>
hikey=c#6
hivel=127
lokey=c6
loop_end=273759
loop_mode=loop_continuous
loop_start=44431
loop_xfade=23478
lovel=0
lpc=cDABQZRxdMCdJqtA8HqBPUcsX0CXfcU/6oozQPcGgj80g39ANMziPr2zZ0DAr4E/bulUQDGDnT8JCUNA4MuYP5kDcUCFA/4+Chl+QI1U3j51KJFAbX5CwGKd2T2AIcU/
lpc_rms=-14.35
pan=30.00
pitch_keycenter=c#6
sample=Soloviolin2_espressivo_MF_C#6.opus
volume=-9.00
</region>

<region>
hikey=d#4
hivel=127
lokey=d4
loop_end=262008
loop_mode=loop_continuous
loop_start=62665
loop_xfade=23022
lovel=0
lpc=9h3RQEC+iMG0fLtBeR2qwcpzcEHp6hHBmNG8QPqXqcCw0cFAbv+/wG7klkCMLyvAE5nIPspk2z/mhRXA8mTbP8dhA75voQi/eU4NPznYyD648Q3AGcl/QFKVb8DuIsw/
lpc_rms=-19.48
pan=30.00
pitch_keycenter=d#4
sample=Soloviolin2_espressivo_MF_D#4.opus
tune=+1
volume=-9.00
</region>

<region>
hikey=d#5
hivel=127
lokey=d5
loop_end=277474
loop_mode=loop_continuous
loop_start=45230
loop_xfade=23900
lovel=0
lpc=j+GqQK+tOcEBwVRBI1UWwRPhwEAN66fAyL5nQO0a2L8qZ4I/bsjhviZN6r418hJATFAZwHZb0z9PuBG+DiCUv2Jx0j/mFbu/UsR6P9yGSL/nCio/CK+mPgydEL/XEdc+
lpc_rms=-19.09
pan=30.00
pitch_keycenter=d#5
sample=Soloviolin2_espressivo_MF_D#5.opus
tune=-1
volume=-9.00
</region>

<region>
hikey=d#6
hivel=127
lokey=d6
loop_end=267357
loop_mode=loop_continuous
loop_start=43638
loop_xfade=23058
lovel=0
lpc=+yECQX5SBcA1hXdA5IxZQO+fU0DguldAoqZWQGaMQUAF42dAVm1AQKnsbEBwcTVAAlV3QIVER0B1RVNAl0g8QCG3gEAzpylAN3CHQHY6XcAJ8R5AdHAPQGA+yL9FOTw/
lpc_rms=-15.98
pan=30.00
pitch_keycenter=d#6
sample=Soloviolin2_espressivo_MF_D#6.opus
tune=+2
volume=-9.00
</region>

<region>
hikey=f4
hivel=127
lokey=e4
loop_end=278462
loop_mode=loop_continuous
loop_start=70984
loop_xfade=23815
lovel=0
lpc=fBa9QIXgYMHp0o1Bc55jwRbfDkGuqZ3AEplVQFEyhMDIWphAdHlTwOKPPT+NCGk/CgLpv5lztz9P8Wa5RPdrvwJ+pD+C7He/QFipP0dHbb9HWCy/4ogjQCVsG8AG+Eo/
lpc_rms=-20.98
pan=30.00
pitch_keycenter=f4
sample=Soloviolin2_espressivo_MF_F4.opus
tune=+2
volume=-9.00
</region>

<region>
hikey=f5
hivel=127
lokey=e5
loop_end=274914
loop_mode=loop_continuous
loop_start=44408
loop_xfade=23466
lovel=0
lpc=HXiVQCl6CcFgQxlBnMLMwBTlkUBgOS/An+cXQEHJAMBDVvc/aJNnvxnM+b4kTBdAV4cnwF2szz/0/Bm+1OjzvfVDLD804GW+6DsBP9ZtAr+VD6s/lt7Gv3Q+6T+KFUO/
lpc_rms=-18.83
pan=30.00
pitch_keycenter=f5
sample=Soloviolin2_espressivo_MF_F5.opus
tune=+1
volume=-9.00
</region>

<region>
hikey=f6
hivel=127
lokey=e6
loop_end=269288
loop_mode=loop_continuous
loop_start=44185
loop_xfade=23347
lovel=0
lpc=ggoLQXYvRsCQ8MhAlIWPuykvVEDnDopA/1u3P4BHtT+NTRpAdYHGPx2p+z9Eic4/YhUcQMQaqj+e9xRAUSOkP9e3NkDB/svAWVtaQJeuLMBM144+aI19Pkh3asBGIWk/
lpc_rms=-15.46
pan=30.00
pitch_keycenter=f6
sample=Soloviolin2_espressivo_MF_F6.opus
tune=-1
volume=-9.00
</region>

<region>
hivel=127
key=g3
loop_end=274161
loop_mode=loop_continuous
loop_start=62881
loop_xfade=23467
lovel=0
lpc=bkTEQFthgMHYK7FBJ8Giwd3KaEGfDQvBRButQDyjqMB+TL9AoACXwAd9xD9ItbY/8KoZwEwN4D+XUgW/QdogPu85sz7raui+4AsxPw1TCL9qPnS+DKG3Pz/Rwr9fswk/
lpc_rms=-22.64
pan=30.00
sample=Soloviolin2_espressivo_MF_G3.opus
volume=-9.00
</region>

<region>
hikey=g4
hivel=127
lokey=f#4
loop_end=272617
loop_mode=loop_continuous
loop_start=45092
loop_xfade=23827
lovel=0
lpc=ZeCtQMSiMsHZP0hBuGcZwUV8E0FJ/QXBDgi5QEYViMAKn5RALrEwwBXi5T5sQ9s7ua+kPmBkmjtUtcI/8a8pwNTpMUAMvSLAdApZQFvTLcBIF8g/622Iv+Ngnj+2cga/
lpc_rms=-22.02
pan=30.00
pitch_keycenter=g4
sample=Soloviolin2_espressivo_MF_G4.opus
volume=-9.00
</region>

<region>
hikey=g5
hivel=127
lokey=f#5
loop_end=275819
loop_mode=loop_continuous
loop_start=44869
loop_xfade=23709
lovel=0
lpc=I44ZQNF8RsDOCUpAznoKwFe65D9lF1S/owmOP888fb/F+VY/E05BvlR7F76nINo+IxHpPsOBDL8pKzc/XGvAvhnoxz6ZFCw9tIDcPu+qTz4AufK+EilkP5udS7+SJBo/
lpc_rms=-18.28
pan=30.00
pitch_keycenter=g5
sample=Soloviolin2_espressivo_MF_G5.opus
tune=+1
volume=-9.00
</region>

<region>
hikey=g6
hivel=127
lokey=f#6
loop_end=269487
loop_mode=loop_continuous
loop_start=43812
loop_xfade=23150
lovel=0
lpc=648bQafQTcBesaRAUJguQNE6bEAqcgRAjsqDQO/onj/+lt0/VjMrQIouIkDAKO0/yjB+QDRtKD9o1JlA3+fJwO2oFUA6LUA/9BXyvwD9Dr8ykto+jBOfv1qsHT1oEt4/
lpc_rms=-15.26
pan=30.00
pitch_keycenter=g6
sample=Soloviolin2_espressivo_MF_G6.opus
volume=-9.00
</region>
</group>

<group>
group_label=FF
lpc_hicc1=127
lpc_locc1=85

<region>
hikey=a3
hivel=127
lokey=g#3
loop_end=275368
loop_mode=loop_continuous
loop_start=45878
loop_xfade=24242
lovel=0
lpc=1CEJQUpN0cECMSBC/uIewsS+50FCd5PB6OFOQWXvGcH1tOlApU3mwPbi40ActpDA276MPyQ0hbyccpk/gG3fv4vaej+/EFk+Rlmuv7UKUEBQ9ZnAdZOWQHExNsBpf2U/
lpc_rms=-16.20
pitch_keycenter=a3
sample=Soloviolin2_espressivo_FF_A3.opus
tune=+1
</region>

<region>
hikey=a4
hivel=127
lokey=g#4
loop_end=277004
loop_mode=loop_continuous
loop_start=45531
loop_xfade=24059
lovel=0
lpc=ACkEQb61vcEvNQpCiNgIwqfn2UE3Xp7BLe9PQb7t58BzUzxAPw9Iv8JufD+rTyfAOLWSQCqYrsAq5rdArp+4wDV5o0ArLXTAZ6YZQNHppr/9NGI+kKyCP7pooL9lnTg/
lpc_rms=-17.08
pitch_keycenter=a4
sample=Soloviolin2_espressivo_FF_A4.opus
tune=+4
</region>

<region>
hikey=a5
hivel=127
lokey=g#5
loop_end=279402
loop_mode=loop_continuous
loop_start=44914
loop_xfade=23733
lovel=0
lpc=9NPRQGS6BMFiowZBzzWCwAbhO0DRx7I+kw5sP76/L7/f5QtARmP8Pc8tbz/OuHq+us0HQKmo5r4ylJo/YBXHP+5o4L8qTWBAclFCv6BTjz/bese7p1zmP9LmQb8mSRdA
lpc_rms=-9.83
pitch_keycenter=a5
sample=Soloviolin2_espressivo_FF_A5.opus
tune=-1
</region>

<region>
hikey=a6
hivel=127
lokey=g#6
loop_end=270860
loop_mode=loop_continuous
loop_start=51534
loop_xfade=27231
lovel=0
lpc=lCE2QargFMGMsdNA2ji+v+PdMkAVlx1A+szZv9ngkL44DkVAEqxXPihuT0C7cVTASECWQC2wCsHxSqO/Cx1pQKShlcCXW8U/2jl1wLw/5L4nvtY/pZVnv4KS8b9Qze6/
lpc_rms=-16.27
pitch_keycenter=a6
sample=Soloviolin2_espressivo_FF_A6.opus
tune=-7
</region>

<region>
hikey=b3
hivel=127
lokey=a#3
loop_end=275774
loop_mode=loop_continuous
loop_start=45262
loop_xfade=23917
lovel=0
lpc=oA07Qdm/FcLw2WhCFcZowgDAKULzlNjBWmSTQTc1QsGmCdtAm4SdwFuktEBtRMfAG66nQAgTgMBHMylApvYAvym3Ar/w+g4/haDRv2APUUArS3bAjwYgQDDeZL9x2kQ+
lpc_rms=-14.63
pitch_keycenter=b3
sample=Soloviolin2_espressivo_FF_B3.opus
tune=+1
</region>

<region>
hikey=b4
hivel=127
lokey=a#4
loop_end=263429
loop_mode=loop_continuous
loop_start=42062
loop_xfade=22226
lovel=0
lpc=XKMoQQyjAsJZe0pCUftYwizMPkK7IxbCwvffQSYPmsE6bzFBBGqfwECZJUBBOwnAZBnTP86ZOb/bTmg/YMEmwJvugkCiHH/AF7t4QMbhfcBBt1BAwZqmvxW7377kTxo/
lpc_rms=-14.74
pitch_keycenter=b4
sample=Soloviolin2_espressivo_FF_B4.opus
tune=+4
</region>

<region>
hikey=b5
hivel=127
lokey=a#5
loop_end=271433
loop_mode=loop_continuous
loop_start=43543
loop_xfade=23009
lovel=0
lpc=GxMAQTOWC8EuE+dAYieTwJZvr0C7ArPAFj7BQAhPjcBp/ohAdHJcwA3qikA1mFfAshZoQIT8Q8A8FoBAVBxgwC0UfUDNzFnADFebQPovksBap5JApoJEwPmkfUAQQI7A
lpc_rms=-13.17
pitch_keycenter=b5
sample=Soloviolin2_espressivo_FF_B5.opus
tune=+1
</region>

<region>
hikey=E7
hivel=127
lokey=a#6
loop_end=275396
loop_mode=loop_continuous
loop_start=44467
loop_xfade=23497
lovel=0
lpc=yMSuQSN7mcETeWNBr5msv2qmLEBIZvC+QgcAQUN/RMDFWDtAiY9lQM3EUUBYAKHALHqfwQp1UUFKcd3APTcswLs4u7/AUq4/g0b4wK79+z9tate/mOgIwIdOzMCNGwFB
lpc_rms=-10.97
pitch_keycenter=B6
sample=Soloviolin2_espressivo_FF_B6.opus
tune=-1
</region>

<region>
hikey=c#4
hivel=127
lokey=c4
loop_end=274110
loop_mode=loop_continuous
loop_start=44756
loop_xfade=23650
lovel=0
lpc=7amvQTJyjcJ+XNtCI67awq4WnkK5G0jCrK4EQpdZpcGxpgpBmbPOv8chpL8mqz5AB9iNwN6JdECIEfS/Z5krQDJeNsCoUOs/oxA2v+uVsz+KtAbACdKKP3S/eL7edIK9
lpc_rms=-9.83
pitch_keycenter=c#4
sample=Soloviolin2_espressivo_FF_C#4.opus
</region>

<region>
hikey=c#5
hivel=127
lokey=c5
loop_end=273665
loop_mode=loop_continuous
loop_start=44360
loop_xfade=23440
lovel=0
lpc=hmifQcdXW8J1xJ5CUUCjwk+chULqukbC9QEOQh/yscGtaixBqZEWwBb9RD1TJte/tOuxQG+nFcH1VzlB3uw5westQUEmXB/BagHtQN1rscBEH/U/SHG/P/57dcAe52BA
lpc_rms=-11.09
pitch_keycenter=c#5
sample=Soloviolin2_espressivo_FF_C#5.opus
tune=-1
</region>

<region>
hikey=c#6
hivel=127
lokey=c6
loop_end=266364
loop_mode=loop_continuous
loop_start=43811
loop_xfade=23150
lovel=0
lpc=04YAQYl5HsHvQQVB7V1+wHwP7j8UyHy+gqSsP8XS07/0PUlA2ZgvwMTTbECQNkjA06RVQGpbHMDg6T5A5kMPwGIeIEBwJZy/abn6Pxgb4L8/Nk1Ap5/awPs7ekCAn32/
lpc_rms=-14.54
pitch_keycenter=c#6
sample=Soloviolin2_espressivo_FF_C#6.opus
tune=-1
</region>

<region>
hikey=d#4
hivel=127
lokey=d4
loop_end=273355
loop_mode=loop_continuous
loop_start=45036
loop_xfade=23797
lovel=0
lpc=F944QS4qD8KCllpCkc5XwoADHUIXCM3BEqOXQQqkcsExFDhB3gkVwd4c7UC1hKPAQX4bQEwco7/WMYs/W2G5PY4ttr+wtAtAnPwCwAgW1j+RVJK/BYJHPwh4EL8uksE+
lpc_rms=-14.35
pitch_keycenter=d#4
sample=Soloviolin2_espressivo_FF_D#4.opus
</region>

<region>
hikey=d#5
hivel=127
lokey=d5
loop_end=271077
loop_mode=loop_continuous
loop_start=44297
loop_xfade=23407
lovel=0
lpc=zF5BQYP9D8KexFVC1ilPwjkpIkK/PPvBhC7MQXdYmcGxSFFBY/kKwcgHuUDhpI3AACSAQBAOF8DtI2w/DvH+vkfbOj5PX90/161iwE8IkkCn9XHA7pMdQJyULb+H/Tw+
lpc_rms=-13.82
pitch_keycenter=d#5
sample=Soloviolin2_espressivo_FF_D#5.opus
tune=-2
</region>

<region>
hikey=d#6
hivel=127
lokey=d6
loop_end=279483
loop_mode=loop_continuous
loop_start=45579
loop_xfade=24084
lovel=0
lpc=ii8CQZ6/5MDOncFAx3x/wJFSwUCpe1PAPaQqQNAT+L+9ObA/OdCRv4Hv3T8yDPu/8IgJQM/azb+1o6c/M5qVvy4dvD86a7G/aUXrPzqB6sAjj1ZAkNgHwNVKmj/2zjXA
lpc_rms=-18.15
pitch_keycenter=d#6
sample=Soloviolin2_espressivo_FF_D#6.opus
tune=-1
</region>

<region>
hikey=f4
hivel=127
lokey=e4
loop_end=271296
loop_mode=loop_continuous
loop_start=44157
loop_xfade=23333
lovel=0
lpc=/xs1QTnMBcI5mkFC6Jg3wrXWBELeF7bBcAaIQWowRsH1nQVBc/+ywBnAeEC13F3ANlpFQFEdPsBxK0dAE28kwGo4jj88wN0/W+SHwBrqp0BbfqjABYCMQDxSU8Dy7tg/
lpc_rms=-16.12
pitch_keycenter=f4
sample=Soloviolin2_espressivo_FF_F4.opus
</region>

<region>
hikey=f5
hivel=127
lokey=e5
loop_end=277003
loop_mode=loop_continuous
loop_start=44487
loop_xfade=23507
lovel=0
lpc=et6GQMWX5sDWXtJAngB7wKWwMUCyl9G/a6KTP4vXB78x1K0+0jIMvja+CT+r0Zi/AsnVP1AJqb8MG1E/Rh2qvrZTLz/xtx8+fLMsvpuZSz1Tj3s+YyrOPa8mOr7mnm4+
lpc_rms=-12.26
pitch_keycenter=f5
sample=Soloviolin2_espressivo_FF_F5.opus
</region>

<region>
hikey=f6
hivel=127
lokey=e6
loop_end=276652
loop_mode=loop_continuous
loop_start=44945
loop_xfade=23749
lovel=0
lpc=CvCrQOS+cMDtUDZAuZyvO8U7Vz97xZu+oAu2P5t+ab96gl8/8879vjtkmT6djHG+WQ/qPp/70r63mCs/Zg8Hv6NyED8WtpfA1L4RQNBYor83FHG/qYrGvhqHJ74anRG/
lpc_rms=-22.58
pitch_keycenter=f6
sample=Soloviolin2_espressivo_FF_F6.opus
tune=-4
</region>

<region>
hivel=127
key=g3
loop_end=271828
loop_mode=loop_continuous
loop_start=44842
loop_xfade=23695
lovel=0
lpc=ei4oQdhd/MHShDlCs3Quwo6/8kHWrZnBtdFdQQ5dIsFQL/JAwQzQwOBUm0ACoO+/MGujPn7inL/59OE/isB3PqRgZL9R5Rm/kw5tP/E4ij+XGiPAJRPVP7+j875+RfS8
lpc_rms=-14.44
sample=Soloviolin2_espressivo_FF_G3.opus
</region>

<region>
hikey=g4
hivel=127
lokey=f#4
loop_end=271843
loop_mode=loop_continuous
loop_start=44186
loop_xfade=23348
lovel=0
lpc=bY0eQYef38ELdCBChd8fwsUoAUL1x7zBnuV7Qf5YDMGromZAXTEavx+Oyb7o6Au+hMTkvs7VUT+nEY09rgKtv5IRuz9nkaM+gtWRv7zTuj/tXQrAOIBIQLDZT8DovNY/
lpc_rms=-16.94
pitch_keycenter=g4
sample=Soloviolin2_espressivo_FF_G4.opus
tune=+3
</region>

<region>
hikey=g5
hivel=127
lokey=f#5
loop_end=275330
loop_mode=loop_continuous
loop_start=44814
loop_xfade=23680
lovel=0
lpc=8QdiQOfWpcBEA5JANOkRwGD47T/b88K/VqX1P2vy9r/d8+g/GF0bv9220r4ZfgY+LRyMP2OjfL9L2XA/IF7QvrFkPz9MvEE+9mSKPjL6e762RE69Dt2TP3hvkL/qYyg/
lpc_rms=-13.89
pitch_keycenter=g5
sample=Soloviolin2_espressivo_FF_G5.opus
tune=+1
</region>

<region>
hikey=g6
hivel=127
lokey=f#6
loop_end=271688
loop_mode=loop_continuous
loop_start=43824
loop_xfade=23157
lovel=0
lpc=WwPiQEwcm8C21a9ALGHIv28i1j+3ENg+HJ3SPxnRKcBgAD4/JIGTvhH96D5CaS6/MAeIP2BxrL9ffA9AdIbhwHm3IEDdJyjACn0wv149Wb6VGD6/pVvdvwTP3z9CG+U+
lpc_rms=-21.00
pitch_keycenter=g6
sample=Soloviolin2_espressivo_FF_G6.opus
tune=-2
</region>
</group>